<svg xmlns="http://www.w3.org/2000/svg" viewBox="0 0 512 512">
  <defs>
    <linearGradient id="bg" x1="0" y1="0" x2="1" y2="1">
      <stop offset="0" stop-color="#b9d2c1"/>
      <stop offset="1" stop-color="#8eb7c5"/>
    </linearGradient>
  </defs>
  <rect width="512" height="512" rx="112" fill="url(#bg)"/>
  <circle cx="390" cy="126" r="54" fill="#f5f4ed" opacity=".42"/>
  <path d="M94 246 256 116l162 130v168H94Z" fill="#fffef9"/>
  <path d="M74 250 256 102l182 148" fill="none" stroke="#17363a" stroke-width="28" stroke-linecap="round" stroke-linejoin="round"/>
  <path d="M126 236v174h260V236" fill="none" stroke="#17363a" stroke-width="24" stroke-linejoin="round"/>
  <path d="M218 410V292h76v118" fill="#e8c8b8" stroke="#17363a" stroke-width="20"/>
  <path d="M352 216v-74M332 142h40M338 126h28M352 92v34" fill="none" stroke="#17363a" stroke-width="14" stroke-linecap="round"/>
  <path d="M329 178h46l-8 28h-30Z" fill="#e4d9a9" stroke="#17363a" stroke-width="10" stroke-linejoin="round"/>
  <path d="m340 206-22 82m46-82 22 82" fill="none" stroke="#17363a" stroke-width="10" stroke-linecap="round"/>
  <circle cx="256" cy="350" r="8" fill="#17363a"/>
</svg>
